<svg width="12" height="12" viewBox="0 0 12 12" fill="none" xmlns="http://www.w3.org/2000/svg" class="css-1sbsjfv">
    <path fill-rule="evenodd" clip-rule="evenodd"
          d="M11.1959 3.00005L5.99994 0.000183105L0.803965 3.00005H0.803762L0.803813 3.00014L0.803762 3.00017H0.80383L5.99994 12L11.196 3.00017H11.1961L11.1961 3.00014L11.1961 3.00005H11.1959Z"
          fill="#232629"></path>
    <path d="M6.00002 12L11.1962 3.00005H0.803851L6.00002 12Z" fill="url(#paint0_linear_2358_15720)"></path>
    <path fill-rule="evenodd" clip-rule="evenodd"
          d="M6.00003 11.9997L6.00014 11.9999L11.1963 2.99991L6.00003 2.99991L6.00003 11.9997Z"
          fill="url(#paint1_linear_2358_15720)"></path>
    <path d="M5.99998 12L9.24759 3.00005H2.75238L5.99998 12Z" fill="url(#paint2_linear_2358_15720)"></path>
    <path d="M6.00002 0.00012207L11.1962 3.00011L0.803851 3.00011L6.00002 0.00012207Z"
          fill="url(#paint3_linear_2358_15720)"></path>
    <path fill-rule="evenodd" clip-rule="evenodd"
          d="M6.00003 0.000175238L6.00014 0.000108242L11.1963 3.00009L6.00003 3.00009V0.000175238Z"
          fill="url(#paint4_linear_2358_15720)"></path>
    <path d="M5.99998 0.00012207L9.24759 3.00011L2.75238 3.00011L5.99998 0.00012207Z"
          fill="url(#paint5_linear_2358_15720)"></path>
    <path d="M6.00002 0.00012207L11.1962 3.00011L0.803851 3.00011L6.00002 0.00012207Z" fill="white"
          fill-opacity="0.12"></path>
    <g style="mix-blend-mode: overlay;">
        <path fill-rule="evenodd" clip-rule="evenodd"
              d="M11.1959 3.00005L5.99994 0.000183105L0.803965 3.00005H0.803762L0.803813 3.00014L0.803762 3.00017H0.80383L5.99994 12L11.196 3.00017H11.1961L11.1961 3.00014L11.1961 3.00005H11.1959Z"
              fill="white"></path>
    </g>
    <defs>
        <linearGradient id="paint0_linear_2358_15720" x1="6.00002" y1="12" x2="1.2042" y2="3.06576"
                        gradientUnits="userSpaceOnUse">
            <stop stop-color="#FFC701"></stop>
            <stop offset="1" stop-color="#FFE793"></stop>
        </linearGradient>
        <linearGradient id="paint1_linear_2358_15720" x1="8.59812" y1="2.99991" x2="8.59812" y2="11.9999"
                        gradientUnits="userSpaceOnUse">
            <stop stop-color="#7A5F00"></stop>
            <stop offset="1" stop-color="#382C00"></stop>
        </linearGradient>
        <linearGradient id="paint2_linear_2358_15720" x1="3.99998" y1="6.00003" x2="9.50818" y2="3.59017"
                        gradientUnits="userSpaceOnUse">
            <stop stop-color="#5F4A00"></stop>
            <stop offset="1" stop-color="#866902"></stop>
        </linearGradient>
        <linearGradient id="paint3_linear_2358_15720" x1="6.00002" y1="0.00012197" x2="5.33491" y2="3.71731"
                        gradientUnits="userSpaceOnUse">
            <stop stop-color="#FFC701"></stop>
            <stop offset="1" stop-color="#FFE793"></stop>
        </linearGradient>
        <linearGradient id="paint4_linear_2358_15720" x1="8.59812" y1="3.00009" x2="8.59812" y2="0.000108004"
                        gradientUnits="userSpaceOnUse">
            <stop stop-color="#7A5F00"></stop>
            <stop offset="1" stop-color="#382C00"></stop>
        </linearGradient>
        <linearGradient id="paint5_linear_2358_15720" x1="3.99998" y1="2.00011" x2="6.41029" y2="5.16367"
                        gradientUnits="userSpaceOnUse">
            <stop stop-color="#5F4A00"></stop>
            <stop offset="1" stop-color="#866902"></stop>
        </linearGradient>
    </defs>
</svg>