<svg width="36" height="56" viewBox="0 0 36 56" xmlns="http://www.w3.org/2000/svg">
    <path fill="#FFC701"
          d="M4.23913 23.8422L3.97826 28.7146L7.17391 32.5476H10.7609L16.0435 27.8051L16.7609 24.1671L15.0652 22.8028H20.9348L19.2391 24.1671L19.9565 27.8051L25.2391 32.5476H28.8261L32.0217 28.7146L31.7609 23.8422L29.5435 21.6334H6.45652L4.23913 23.8422Z"></path>
    <path fill="#FFC701"
          d="M4.23913 23.8422L3.97826 28.7146L7.17391 32.5476H10.7609L16.0435 27.8051L16.7609 24.1671L15.0652 22.8028H20.9348L19.2391 24.1671L19.9565 27.8051L25.2391 32.5476H28.8261L32.0217 28.7146L31.7609 23.8422L29.5435 21.6334H6.45652L4.23913 23.8422Z"></path>
    <path fill="#FFC701" fill-rule="evenodd" clip-rule="evenodd"
          d="M31.505 8.0357L27.6522 6.75638L25.7609 2.9884L18.4565 0L9.13043 2.01392L4.48028 8.02471L4.43478 7.99072L2.02174 10.7193L1.23913 15.4617L0 18.9049L1.23913 28.4548L0 29.5592V35.471L2.80435 40.4733V44.1763L12.3261 54.8956L18 56L23.6739 54.8956L33.1957 44.1763V40.4733L36 35.471V29.5592L34.7609 28.4548L36 18.9049L34.7609 15.4617L33.9783 10.7193L31.5652 7.99072L31.505 8.0357ZM18 10.5893L24.913 9.74478L25.8913 7.66589L26.6087 10.1995L29.4783 11.4988L30.6522 14.4872L33.2609 19.8144L31.6957 20.1392L33.2609 31.3132C31.7391 35.6009 28.6435 44.0724 28.4348 43.6566C28.2261 43.2408 26.5217 40.1918 25.6957 38.7193L21.6522 34.9513L18 35.0162L14.3478 34.9513L10.3043 38.7193C9.47826 40.1918 7.77391 43.2408 7.56522 43.6566C7.35652 44.0724 4.26087 35.6009 2.73913 31.3132L4.30435 20.1392L2.73913 19.8144L5.34783 14.4872L6.52174 11.4988L9.3913 10.1995L9.71739 13.9675L11.087 9.74478L18 10.5893ZM15.8478 38.1346H20.1522L22.2391 39.239L23.9348 41.9025L25.5652 42.6821L23.087 46.3852L20.8043 46.0603L18.587 43.7216H17.413L15.1957 46.0603L12.913 46.3852L10.4348 42.6821L12.0652 41.9025L13.7609 39.239L15.8478 38.1346Z"></path>
    <path fill="#FFC701" fill-rule="evenodd" clip-rule="evenodd"
          d="M31.505 8.0357L27.6522 6.75638L25.7609 2.9884L18.4565 0L9.13043 2.01392L4.48028 8.02471L4.43478 7.99072L2.02174 10.7193L1.23913 15.4617L0 18.9049L1.23913 28.4548L0 29.5592V35.471L2.80435 40.4733V44.1763L12.3261 54.8956L18 56L23.6739 54.8956L33.1957 44.1763V40.4733L36 35.471V29.5592L34.7609 28.4548L36 18.9049L34.7609 15.4617L33.9783 10.7193L31.5652 7.99072L31.505 8.0357ZM18 10.5893L24.913 9.74478L25.8913 7.66589L26.6087 10.1995L29.4783 11.4988L30.6522 14.4872L33.2609 19.8144L31.6957 20.1392L33.2609 31.3132C31.7391 35.6009 28.6435 44.0724 28.4348 43.6566C28.2261 43.2408 26.5217 40.1918 25.6957 38.7193L21.6522 34.9513L18 35.0162L14.3478 34.9513L10.3043 38.7193C9.47826 40.1918 7.77391 43.2408 7.56522 43.6566C7.35652 44.0724 4.26087 35.6009 2.73913 31.3132L4.30435 20.1392L2.73913 19.8144L5.34783 14.4872L6.52174 11.4988L9.3913 10.1995L9.71739 13.9675L11.087 9.74478L18 10.5893ZM15.8478 38.1346H20.1522L22.2391 39.239L23.9348 41.9025L25.5652 42.6821L23.087 46.3852L20.8043 46.0603L18.587 43.7216H17.413L15.1957 46.0603L12.913 46.3852L10.4348 42.6821L12.0652 41.9025L13.7609 39.239L15.8478 38.1346Z"></path>
</svg>