<svg width="38" height="52" viewBox="0 0 38 52" xmlns="http://www.w3.org/2000/svg">
    <path fill="#ffffff" opacity="0.6"
          d="M10.3213 16.973C8.85881 17.9137 5.89973 19.8657 5.76298 20.1479C5.62623 20.4302 4.98427 25.126 4.68039 27.4386L8.27003 31.4955H12.6004C13.8919 30.3392 16.4749 27.9678 16.4749 27.7326C16.4749 27.4974 16.8928 23.4797 17.1017 21.5002L14.0249 16.973H10.3213Z"></path>
    <path fill="#ffffff" opacity="0.6"
          d="M27.6787 16.973C29.1412 17.9137 32.1003 19.8657 32.237 20.1479C32.3738 20.4302 33.0157 25.126 33.3196 27.4386L29.73 31.4955H25.3996C24.1081 30.3392 21.5251 27.9678 21.5251 27.7326C21.5251 27.4974 21.1072 23.4797 20.8983 21.5002L23.9751 16.973H27.6787Z"></path>
    <path fill="#ffffff" opacity="0.6" fill-rule="evenodd" clip-rule="evenodd"
          d="M18.747 2.16667L19 2.18404L19.253 2.16667L24.3711 2.51802L25.0611 0L30.2367 0.995496L30.4667 4.04054L31.3868 4.8018L30.9843 9.07658L34.4921 12.8829L35.8723 18.1532H38L36.9649 25.5901L35.8723 34.6667V39.8198L34.4921 42.5135V44.5045L32.5369 50.0676L30.9843 50.9459L29.1441 52H8.85593L7.01574 50.9459L5.46308 50.0676L3.50787 44.5045V42.5135L2.12772 39.8198V34.6667L1.03511 25.5901L0 18.1532H2.12772L3.50787 12.8829L7.01574 9.07658L6.6132 4.8018L7.53329 4.04054L7.76332 0.995496L12.9389 0L13.6289 2.51802L18.747 2.16667ZM22.527 47.3401L24.587 44.8695L24.0498 41.4523L22.7391 39.1912L20.0636 38.1014H17.9364L15.2609 39.1912L13.9502 41.4523L13.413 44.8695L15.473 47.3401L19 48.3401L22.527 47.3401ZM20.5182 34.6667L24.2561 36.1892L27.5339 40.8153L26.8438 45.9099L26.2561 47.0135C26.5826 47.2693 27.2441 47.4765 27.6873 47.6153C27.9205 47.6884 28.0933 47.7425 28.125 47.7748L29.1441 46.5L33.1471 38.7658L34.4697 26.2342L32.112 14.2297L30.0642 11.1261L25.9812 9.72072H12.0188L7.93584 11.1261L5.88801 14.2297L3.53027 26.2342L4.85291 38.7658L8.85593 46.5L9.875 47.7748C9.90672 47.7425 10.0795 47.6884 10.3127 47.6153C10.7559 47.4765 11.4174 47.2693 11.7439 47.0135L11.1562 45.9099L10.4661 40.8153L13.7439 36.1892L17.4818 34.6667H20.5182Z"></path>
</svg>