<svg width="130" height="109" viewBox="0 0 130 109" fill="none" xmlns="http://www.w3.org/2000/svg">
    <path fill="#ffffff" opacity="0.6" fill-rule="evenodd" clip-rule="evenodd"
          d="M87.9845 32.8861L85.9979 35.8279L88.12 38.6735L94.2146 46.8458L95.1375 48.0832L96.5973 48.5851L113.804 54.5001L96.5978 60.4149L95.138 60.9167L94.2151 62.1541L88.1206 70.3262L85.9984 73.1718L87.9851 76.1136L91.6842 81.5912L87.6811 78.8877L83.727 76.2175L80.8747 80.0422L65.5161 100.636L49.5391 79.2126L46.6867 75.3878L42.7326 78.0581L37.501 81.5911L42.078 74.8137L44.0646 71.8719L41.9425 69.0263L37.4543 63.008L36.5314 61.7705L35.0715 61.2686L15.3809 54.5001L35.072 47.7313L36.5319 47.2295L37.4547 45.992L41.9431 39.9734L44.0652 37.1278L42.0786 34.186L37.5016 27.4085L42.7332 30.9415L46.6873 33.6118L49.5396 29.787L65.5161 8.3637L80.8741 28.9574L83.7265 32.7821L87.6805 30.1119L91.6836 27.4085L87.9845 32.8861ZM129.185 54.5001L121.495 51.8565L98.2228 43.8567L92.1282 35.6843L102.776 19.918L110.266 8.82611L99.1742 16.3167L84.8822 25.9683L68.6347 4.18184L65.5161 0L62.3974 4.18186L45.5315 26.7979L30.0111 16.3166L18.9192 8.82605L26.4098 19.918L37.9349 36.9843L33.4466 43.0029L7.69046 51.8565L0 54.5001L7.69047 57.1437L33.4461 65.9971L37.9344 72.0154L26.409 89.0818L18.9184 100.174L30.0104 92.6831L45.5309 82.2017L62.3974 104.818L65.5161 109L68.6347 104.818L84.8828 83.0313L99.1749 92.6831L110.267 100.174L102.776 89.0818L92.1287 73.3153L98.2232 65.1433L121.495 57.1437L129.185 54.5001ZM88.625 53.937L66.0925 22.3916L43.5604 53.937L66.0925 85.482L88.625 53.937Z"></path>
</svg>