<svg width="34" height="42" viewBox="0 0 34 42" xmlns="http://www.w3.org/2000/svg" class="css-tp2m6z">
    <path fill="#000000" opacity="0.35" fill-rule="evenodd" clip-rule="evenodd"
          d="M2.02796 32.9371L7.62897 13.9636C7.43584 13.5331 7.1075 12.4735 7.33927 11.6788C7.62897 10.6855 7.91868 9.69207 7.91868 9.19538C7.91868 8.69869 8.78781 7.50664 9.46379 7.4073C10.0046 7.32783 11.2986 7.37419 11.878 7.4073C12.2965 7.1424 13.2107 6.19538 13.5197 4.52651C13.7899 3.06749 13.2097 2.82328 12.7705 2.63837C12.5817 2.5589 12.4189 2.49038 12.3609 2.34107C12.2965 2.17551 12.1463 2.02099 11.9996 1.87014C11.7063 1.56845 11.4274 1.28147 11.878 0.950345C12.0641 0.81361 12.2063 0.646761 12.3388 0.491249C12.6877 0.0818644 12.9696 -0.248957 13.8094 0.25498C14.3798 0.597225 14.4589 0.43413 14.5418 0.263132C14.6274 0.0867023 14.717 -0.0981396 15.3545 0.25498C15.8366 0.521986 16.7173 0.730406 17.7069 0.964599C19.2946 1.34032 21.1626 1.78237 22.1144 2.63909C21.4384 2.16952 22.2109 3.7318 22.5972 3.63247C22.809 3.578 23.166 3.16512 23.493 2.78688C23.7624 2.47532 24.0115 2.18727 24.1423 2.1424C24.227 2.11336 24.3612 2.02493 24.5328 1.91181C24.9483 1.63792 25.5834 1.21932 26.2668 1.14902C26.4278 1.13246 26.5727 1.11591 26.7054 1.10073C27.3693 1.02485 27.7315 0.983455 28.2948 1.14902C28.4913 1.20676 28.6796 1.24772 28.8692 1.28896C29.332 1.38965 29.8028 1.49204 30.4193 1.84438C31.2885 2.34107 31.7713 2.9371 32.2541 3.63247L32.3656 3.79239C32.8056 4.42305 33.2141 5.00842 33.6061 6.01657C33.7993 6.51326 34.1855 9.09605 33.8958 10.4868C33.7349 11.4139 33.0653 13.5265 31.6747 14.5596C31.4699 14.7118 31.2838 14.8543 31.1104 14.9872L31.11 14.9875L31.1099 14.9875C29.8118 15.9819 29.2199 16.4353 26.7497 16.3477C25.5909 16.3066 23.241 14.7252 22.8869 13.9636L16.3202 30.4537C15.3223 30.7517 13.3072 31.3676 13.23 31.4471C13.1527 31.5265 12.554 31.4802 12.2643 31.4471C12.1355 31.5133 11.878 31.7451 11.878 32.1424C11.878 32.6391 11.7815 33.8312 11.0089 35.0232C10.9767 36.0497 10.8737 38.2418 10.7192 38.7981C10.6784 38.945 10.6419 39.1096 10.6034 39.2835C10.4594 39.9329 10.2867 40.712 9.7535 41.1822C9.21271 41.659 6.05168 41.5795 4.53876 41.4802C3.70182 41.1822 1.62236 40.1093 0 38.202C0.0643795 37.5067 0.289708 35.8179 0.675985 34.6259C1.15883 33.1358 1.35197 32.9371 2.02796 32.9371ZM12.8437 29.7583L17.5756 16.9437L19.1207 16.2484L20.2795 13.2682L20.1829 12.0762L20.5692 11.9769L21.3418 13.5663L15.0648 29.5597L12.8437 29.7583ZM12.9402 21.2152C12.9402 22.2576 12.1187 23.1027 11.1054 23.1027C10.0921 23.1027 9.27059 22.2576 9.27059 21.2152C9.27059 20.1728 10.0921 19.3278 11.1054 19.3278C12.1187 19.3278 12.9402 20.1728 12.9402 21.2152ZM6.56978 20.9492C6.89154 21.0379 7.36498 20.2936 7.62725 19.2867C7.88953 18.2798 7.84131 17.3917 7.51956 17.303C7.1978 17.2143 6.72436 17.9587 6.46209 18.9655C6.19981 19.9724 6.24803 20.8605 6.56978 20.9492ZM15.2912 21.9702C15.064 22.8424 14.6618 23.4894 14.3929 23.4153C14.1239 23.3412 14.0901 22.574 14.3173 21.7018C14.5445 20.8296 14.9467 20.1826 15.2156 20.2567C15.4845 20.3308 15.5184 21.098 15.2912 21.9702ZM8.46002 28.5861C9.1917 28.9189 10.0181 28.6461 10.3058 27.9768C10.5934 27.3074 10.2335 26.4951 9.50184 26.1623C8.77016 25.8295 7.9438 26.1023 7.65611 26.7717C7.36842 27.441 7.72834 28.2534 8.46002 28.5861ZM5.69534 25.4102C5.54314 26.1251 5.20738 26.6568 4.94541 26.5978C4.68344 26.5388 4.59446 25.9114 4.74666 25.1965C4.89887 24.4816 5.23463 23.9499 5.4966 24.0089C5.75857 24.068 5.84755 24.6953 5.69534 25.4102ZM12.3342 29.3235C12.5328 29.3877 12.8666 28.8736 13.0796 28.1754C13.2927 27.4771 13.3045 26.8591 13.1058 26.795C12.9072 26.7308 12.5735 27.2449 12.3604 27.9431C12.1473 28.6413 12.1356 29.2594 12.3342 29.3235ZM4.14403 31.2683C4.00641 31.9304 3.68226 32.4204 3.42001 32.3627C3.15775 32.305 3.05671 31.7215 3.19433 31.0595C3.33194 30.3974 3.6561 29.9074 3.91835 29.9651C4.1806 30.0228 4.28164 30.6063 4.14403 31.2683ZM10.5676 34.4982C10.7506 34.5517 11.0448 34.0672 11.2248 33.416C11.4047 32.7647 11.4023 32.1934 11.2194 32.1399C11.0364 32.0864 10.7422 32.571 10.5623 33.2222C10.3823 33.8735 10.3847 34.4447 10.5676 34.4982ZM8.3649 33.7001C8.06516 34.3369 7.23847 34.5623 6.51844 34.2036C5.79841 33.845 5.4577 33.038 5.75745 32.4013C6.05719 31.7646 6.88388 31.5391 7.60391 31.8978C8.32394 32.2565 8.66465 33.0634 8.3649 33.7001ZM27.6188 14.361C30.2855 14.361 32.4473 11.7814 32.4473 8.59936C32.4473 5.41732 30.2855 2.83777 27.6188 2.83777C24.9521 2.83777 22.7904 5.41732 22.7904 8.59936C22.7904 11.7814 24.9521 14.361 27.6188 14.361Z"></path>
    <path fill="#000000" opacity="0.35" fill-rule="evenodd" clip-rule="evenodd"
          d="M2.02796 32.9371L7.62897 13.9636C7.43584 13.5331 7.1075 12.4735 7.33927 11.6788C7.62897 10.6855 7.91868 9.69207 7.91868 9.19538C7.91868 8.69869 8.78781 7.50664 9.46379 7.4073C10.0046 7.32783 11.2986 7.37419 11.878 7.4073C12.2965 7.1424 13.2107 6.19538 13.5197 4.52651C13.7899 3.06749 13.2097 2.82328 12.7705 2.63837C12.5817 2.5589 12.4189 2.49038 12.3609 2.34107C12.2965 2.17551 12.1463 2.02099 11.9996 1.87014C11.7063 1.56845 11.4274 1.28147 11.878 0.950345C12.0641 0.81361 12.2063 0.646761 12.3388 0.491249C12.6877 0.0818644 12.9696 -0.248957 13.8094 0.25498C14.3798 0.597225 14.4589 0.43413 14.5418 0.263132C14.6274 0.0867023 14.717 -0.0981396 15.3545 0.25498C15.8366 0.521986 16.7173 0.730406 17.7069 0.964599C19.2946 1.34032 21.1626 1.78237 22.1144 2.63909C21.4384 2.16952 22.2109 3.7318 22.5972 3.63247C22.809 3.578 23.166 3.16512 23.493 2.78688C23.7624 2.47532 24.0115 2.18727 24.1423 2.1424C24.227 2.11336 24.3612 2.02493 24.5328 1.91181C24.9483 1.63792 25.5834 1.21932 26.2668 1.14902C26.4278 1.13246 26.5727 1.11591 26.7054 1.10073C27.3693 1.02485 27.7315 0.983455 28.2948 1.14902C28.4913 1.20676 28.6796 1.24772 28.8692 1.28896C29.332 1.38965 29.8028 1.49204 30.4193 1.84438C31.2885 2.34107 31.7713 2.9371 32.2541 3.63247L32.3656 3.79239C32.8056 4.42305 33.2141 5.00842 33.6061 6.01657C33.7993 6.51326 34.1855 9.09605 33.8958 10.4868C33.7349 11.4139 33.0653 13.5265 31.6747 14.5596C31.4699 14.7118 31.2838 14.8543 31.1104 14.9872L31.11 14.9875L31.1099 14.9875C29.8118 15.9819 29.2199 16.4353 26.7497 16.3477C25.5909 16.3066 23.241 14.7252 22.8869 13.9636L16.3202 30.4537C15.3223 30.7517 13.3072 31.3676 13.23 31.4471C13.1527 31.5265 12.554 31.4802 12.2643 31.4471C12.1355 31.5133 11.878 31.7451 11.878 32.1424C11.878 32.6391 11.7815 33.8312 11.0089 35.0232C10.9767 36.0497 10.8737 38.2418 10.7192 38.7981C10.6784 38.945 10.6419 39.1096 10.6034 39.2835C10.4594 39.9329 10.2867 40.712 9.7535 41.1822C9.21271 41.659 6.05168 41.5795 4.53876 41.4802C3.70182 41.1822 1.62236 40.1093 0 38.202C0.0643795 37.5067 0.289708 35.8179 0.675985 34.6259C1.15883 33.1358 1.35197 32.9371 2.02796 32.9371ZM12.8437 29.7583L17.5756 16.9437L19.1207 16.2484L20.2795 13.2682L20.1829 12.0762L20.5692 11.9769L21.3418 13.5663L15.0648 29.5597L12.8437 29.7583ZM12.9402 21.2152C12.9402 22.2576 12.1187 23.1027 11.1054 23.1027C10.0921 23.1027 9.27059 22.2576 9.27059 21.2152C9.27059 20.1728 10.0921 19.3278 11.1054 19.3278C12.1187 19.3278 12.9402 20.1728 12.9402 21.2152ZM6.56978 20.9492C6.89154 21.0379 7.36498 20.2936 7.62725 19.2867C7.88953 18.2798 7.84131 17.3917 7.51956 17.303C7.1978 17.2143 6.72436 17.9587 6.46209 18.9655C6.19981 19.9724 6.24803 20.8605 6.56978 20.9492ZM15.2912 21.9702C15.064 22.8424 14.6618 23.4894 14.3929 23.4153C14.1239 23.3412 14.0901 22.574 14.3173 21.7018C14.5445 20.8296 14.9467 20.1826 15.2156 20.2567C15.4845 20.3308 15.5184 21.098 15.2912 21.9702ZM8.46002 28.5861C9.1917 28.9189 10.0181 28.6461 10.3058 27.9768C10.5934 27.3074 10.2335 26.4951 9.50184 26.1623C8.77016 25.8295 7.9438 26.1023 7.65611 26.7717C7.36842 27.441 7.72834 28.2534 8.46002 28.5861ZM5.69534 25.4102C5.54314 26.1251 5.20738 26.6568 4.94541 26.5978C4.68344 26.5388 4.59446 25.9114 4.74666 25.1965C4.89887 24.4816 5.23463 23.9499 5.4966 24.0089C5.75857 24.068 5.84755 24.6953 5.69534 25.4102ZM12.3342 29.3235C12.5328 29.3877 12.8666 28.8736 13.0796 28.1754C13.2927 27.4771 13.3045 26.8591 13.1058 26.795C12.9072 26.7308 12.5735 27.2449 12.3604 27.9431C12.1473 28.6413 12.1356 29.2594 12.3342 29.3235ZM4.14403 31.2683C4.00641 31.9304 3.68226 32.4204 3.42001 32.3627C3.15775 32.305 3.05671 31.7215 3.19433 31.0595C3.33194 30.3974 3.6561 29.9074 3.91835 29.9651C4.1806 30.0228 4.28164 30.6063 4.14403 31.2683ZM10.5676 34.4982C10.7506 34.5517 11.0448 34.0672 11.2248 33.416C11.4047 32.7647 11.4023 32.1934 11.2194 32.1399C11.0364 32.0864 10.7422 32.571 10.5623 33.2222C10.3823 33.8735 10.3847 34.4447 10.5676 34.4982ZM8.3649 33.7001C8.06516 34.3369 7.23847 34.5623 6.51844 34.2036C5.79841 33.845 5.4577 33.038 5.75745 32.4013C6.05719 31.7646 6.88388 31.5391 7.60391 31.8978C8.32394 32.2565 8.66465 33.0634 8.3649 33.7001ZM27.6188 14.361C30.2855 14.361 32.4473 11.7814 32.4473 8.59936C32.4473 5.41732 30.2855 2.83777 27.6188 2.83777C24.9521 2.83777 22.7904 5.41732 22.7904 8.59936C22.7904 11.7814 24.9521 14.361 27.6188 14.361Z"></path>
</svg>